<?xml version="1.0" encoding="UTF-8" standalone="no"?>
<!-- Generator: Adobe Illustrator 15.1.0, SVG Export Plug-In . SVG Version: 6.00 Build 0)  -->

<svg
   xmlns:dc="http://purl.org/dc/elements/1.1/"
   xmlns:cc="http://creativecommons.org/ns#"
   xmlns:rdf="http://www.w3.org/1999/02/22-rdf-syntax-ns#"
   xmlns:svg="http://www.w3.org/2000/svg"
   xmlns="http://www.w3.org/2000/svg"
   xmlns:sodipodi="http://sodipodi.sourceforge.net/DTD/sodipodi-0.dtd"
   xmlns:inkscape="http://www.inkscape.org/namespaces/inkscape"
   version="1.1"
   id="Calque_1"
   x="0px"
   y="0px"
   width="48"
   height="48"
   viewBox="0 0 48 48"
   xml:space="preserve"
   inkscape:version="0.48.4 r9939"
   sodipodi:docname="projection1.svg"><metadata
     id="metadata11"><rdf:RDF><cc:Work
         rdf:about=""><dc:format>image/svg+xml</dc:format><dc:type
           rdf:resource="http://purl.org/dc/dcmitype/StillImage" /></cc:Work></rdf:RDF></metadata><defs
     id="defs9" /><sodipodi:namedview
     pagecolor="#ffffff"
     bordercolor="#666666"
     borderopacity="1"
     objecttolerance="10"
     gridtolerance="10"
     guidetolerance="10"
     inkscape:pageopacity="0"
     inkscape:pageshadow="2"
     inkscape:window-width="1754"
     inkscape:window-height="1054"
     id="namedview7"
     showgrid="false"
     inkscape:zoom="5.9"
     inkscape:cx="-10.423729"
     inkscape:cy="20"
     inkscape:window-x="166"
     inkscape:window-y="0"
     inkscape:window-maximized="1"
     inkscape:current-layer="Calque_1" /><style
     type="text/css"
     id="style3">
	.st0{fill:#3C385C;}
</style><path
     class="st0"
     d="m 23.983051,1.9680294 c -12.313347,0 -22.387903,10.0745566 -22.387903,22.3879036 0,12.313346 10.074556,22.387903 22.387903,22.387903 12.313346,0 22.387903,-10.074557 22.387903,-22.387903 0,-12.313347 -10.074557,-22.3879036 -22.387903,-22.3879036 z M 40.550098,37.676735 c -0.671636,-0.335818 -2.910427,-1.231334 -6.268612,-2.12685 1.119395,-2.910428 2.014911,-6.380553 2.014911,-10.634255 h 8.955161 c -0.111939,4.813399 -1.902971,9.290981 -4.70146,12.761105 z M 2.7145432,24.91563 h 8.9551608 c 0.111939,4.253702 0.895516,7.723827 2.014911,10.634255 -3.470124,0.783576 -5.7089146,1.791032 -6.2686122,2.12685 C 4.617515,34.206611 2.8264827,29.729029 2.7145432,24.91563 z m 4.7014596,-13.8805 c 0.6716371,0.335819 2.9104272,1.231336 6.2686122,2.014912 -1.119395,2.910427 -2.014911,6.492492 -2.014911,10.746193 l -8.9551608,0 C 2.8264827,18.982836 4.617515,14.505256 7.4160028,11.03513 z M 21.520381,3.199364 c 0.671638,0 1.343274,-0.1119395 1.902972,-0.1119395 l 0,9.9626175 c -3.134307,0 -5.932794,-0.335818 -8.283524,-0.895517 2.35073,-5.3730965 5.596975,-8.2835239 6.380552,-8.955161 z m 3.022367,10.970073 c 3.358186,0 6.268613,-0.447758 8.731282,-1.007455 1.119395,2.910427 1.902972,6.380552 1.902972,10.634253 l -10.634254,0 v -9.626798 z m 0,-1.119395 V 3.0874245 c 0.671638,0 1.231335,0 1.902972,0.1119395 0.783576,0.6716371 4.141762,3.5820645 6.492492,8.955161 -2.462669,0.559699 -5.261158,0.895517 -8.395464,0.895517 z m -1.119395,1.119395 0,9.626798 -10.634254,0 c 0.11194,-4.141762 0.895516,-7.723826 1.902972,-10.522314 2.462669,0.559697 5.485036,0.895516 8.731282,0.895516 z m -10.634254,10.746193 10.634254,0 0,9.40292 c -3.358185,0 -6.268613,0.447758 -8.731282,1.007455 -1.007456,-2.798487 -1.791032,-6.268612 -1.902972,-10.410375 z m 10.634254,10.634255 0,10.074555 c -0.559698,0 -1.119395,0 -1.679092,-0.111939 0,0 -3.917884,-2.910427 -6.604432,-9.0671 2.35073,-0.559698 5.149217,-0.895516 8.283524,-0.895516 z m 1.119395,0 c 3.134306,0 5.932795,0.447758 8.283524,0.895516 -2.686548,6.156673 -6.604431,9.0671 -6.604431,9.0671 -0.559697,0.111939 -1.119396,0.111939 -1.679093,0.111939 V 35.549885 z m 0,-1.119396 V 25.02757 h 10.634254 c -0.11194,4.141762 -0.895516,7.611887 -2.014911,10.410375 -2.35073,-0.559698 -5.261157,-1.007456 -8.619343,-1.007456 z M 36.296397,23.908175 c 0,-4.365641 -0.895516,-7.947706 -2.014911,-10.858133 3.470125,-0.783576 5.708915,-1.791032 6.156673,-2.014912 2.910428,3.582065 4.589521,8.059646 4.70146,12.873045 l -8.843222,0 z m 3.470125,-13.768561 c -1.119395,0.447758 -3.134306,1.231335 -5.932794,1.791033 C 31.594937,6.7814285 28.460631,3.9829407 27.565115,3.3113036 32.378514,4.2068197 36.632216,6.669489 39.766522,10.139614 z M 20.177107,3.4232431 C 19.169652,4.3187592 16.259224,7.117247 14.132373,12.042586 11.333886,11.370949 9.3189745,10.699312 8.1995794,10.139614 11.221946,6.7814285 15.475648,4.3187592 20.177107,3.4232431 z M 8.0876399,38.460312 c 1.1193952,-0.447759 3.2462461,-1.231335 6.0447331,-1.902972 2.574609,5.708915 6.156673,8.507403 6.380553,8.731282 -4.925339,-0.783576 -9.17904,-3.246246 -12.4252861,-6.82831 z m 19.4774751,6.82831 c 0.783577,-0.671637 3.917883,-3.470125 6.268613,-8.731282 2.798488,0.671637 4.925338,1.455213 6.044734,1.902972 -3.134307,3.582064 -7.499948,6.044734 -12.313347,6.82831 z"
     id="path5"
     inkscape:connector-curvature="0"
     style="fill:#3c385c;stroke:#1e96fa;stroke-width:3;stroke-miterlimit:4;stroke-opacity:1;stroke-dasharray:none" /></svg>