<?xml version="1.0" encoding="UTF-8" standalone="no"?>
<!-- Generator: Adobe Illustrator 15.1.0, SVG Export Plug-In . SVG Version: 6.00 Build 0)  -->

<svg
   xmlns:dc="http://purl.org/dc/elements/1.1/"
   xmlns:cc="http://creativecommons.org/ns#"
   xmlns:rdf="http://www.w3.org/1999/02/22-rdf-syntax-ns#"
   xmlns:svg="http://www.w3.org/2000/svg"
   xmlns="http://www.w3.org/2000/svg"
   xmlns:sodipodi="http://sodipodi.sourceforge.net/DTD/sodipodi-0.dtd"
   xmlns:inkscape="http://www.inkscape.org/namespaces/inkscape"
   version="1.1"
   id="Calque_1"
   x="0px"
   y="0px"
   width="48"
   height="48"
   viewBox="0 0 48 48"
   xml:space="preserve"
   inkscape:version="0.48.4 r9939"
   sodipodi:docname="projection3.svg"><metadata
     id="metadata11"><rdf:RDF><cc:Work
         rdf:about=""><dc:format>image/svg+xml</dc:format><dc:type
           rdf:resource="http://purl.org/dc/dcmitype/StillImage" /></cc:Work></rdf:RDF></metadata><defs
     id="defs9" /><sodipodi:namedview
     pagecolor="#ffffff"
     bordercolor="#666666"
     borderopacity="1"
     objecttolerance="10"
     gridtolerance="10"
     guidetolerance="10"
     inkscape:pageopacity="0"
     inkscape:pageshadow="2"
     inkscape:window-width="1754"
     inkscape:window-height="1054"
     id="namedview7"
     showgrid="false"
     inkscape:snap-global="true"
     inkscape:zoom="8.34386"
     inkscape:cx="33.815794"
     inkscape:cy="15.797192"
     inkscape:window-x="166"
     inkscape:window-y="0"
     inkscape:window-maximized="1"
     inkscape:current-layer="Calque_1" /><style
     type="text/css"
     id="style3">
	.st0{fill:#3C385C;}
</style><path
     class="st0"
     d="m 23.964252,1.0612504 c -12.690974,0 -23.07449733,10.3835236 -23.07449733,23.0744966 0,12.690974 10.38352333,23.074498 23.07449733,23.074498 12.690973,0 23.074497,-10.383524 23.074497,-23.074498 0,-12.690973 -10.383524,-23.0744966 -23.074497,-23.0744966 z m 21.920772,22.6130066 -5.768624,0 C 40.001027,19.63622 38.385813,15.944301 35.732245,13.175361 l 4.15341,-4.1534087 c 3.576547,3.8072917 5.883997,8.9990527 5.999369,14.6523047 z M 35.040011,12.367754 C 32.271071,9.7141863 28.579151,8.0989721 24.541114,7.8682272 V 2.2149753 c 5.653252,0.1153725 10.729641,2.4228222 14.536934,6.1147418 L 35.040011,12.367754 z M 23.387389,32.096449 c -1.961332,-0.115373 -3.576547,-0.692235 -4.845644,-1.730587 l 4.845644,-4.845645 v 6.576232 z m 1.153725,-6.576232 4.845645,4.845645 c -1.269098,1.038352 -2.884313,1.615214 -4.845645,1.730587 v -6.576232 z m 0,-9.460544 c 1.961332,0.115373 3.69192,0.807608 4.961017,1.84596 l -4.961017,4.961017 v -6.806977 z m -1.153725,6.806977 -4.845644,-4.961017 c 1.269097,-1.153725 2.884312,-1.730587 4.845644,-1.84596 v 6.806977 z m 0,-7.960702 c -2.076704,0.115373 -4.038037,1.038353 -5.537879,2.30745 l -4.15341,-4.15341 c 2.538195,-2.422822 5.883997,-3.9226637 9.691289,-4.0380357 v 5.8839957 z m -0.807607,8.652937 -6.691604,0 c 0.115372,-1.961332 0.692235,-3.576547 1.845959,-4.961017 l 4.845645,4.961017 z m 0.115372,1.153725 -4.845644,4.845644 C 16.811158,28.289157 16.118923,26.673942 16.00355,24.71261 h 6.691604 z m -4.845644,6.345486 c 1.499842,1.269098 3.461175,2.192078 5.537879,2.30745 v 5.653252 C 19.69547,38.903426 16.349668,37.403583 13.811473,35.096134 l 4.038037,-4.038038 z m 6.691604,2.30745 c 2.076705,-0.115372 4.038037,-0.92298 5.53788,-2.30745 l 4.038037,4.038038 c -2.538195,2.307449 -5.883997,3.807292 -9.575917,3.922664 v -5.653252 z m 0.692235,-8.652936 h 6.806977 c -0.115373,1.961332 -0.807608,3.691919 -1.84596,4.845644 L 25.233349,24.71261 z m 0.115373,-1.038353 4.961017,-4.961017 c 1.038352,1.269098 1.730587,2.999685 1.845959,4.961017 l -6.806976,0 z m 4.845644,-6.460859 c -1.499842,-1.38447 -3.461175,-2.192077 -5.653252,-2.30745 V 9.0219523 c 3.807292,0.115372 7.268467,1.7305867 9.806662,4.1534087 l -4.15341,4.038037 z M 23.387389,7.9835996 C 19.349352,8.0989721 15.772805,9.8295593 13.003865,12.367754 L 8.850456,8.2143446 C 12.657748,4.6377975 17.734137,2.3303478 23.387389,2.2149753 V 7.9835996 z M 17.041903,18.021005 c -1.38447,1.499843 -2.192078,3.461175 -2.30745,5.53788 l -5.768624,0 c 0.115372,-3.69192 1.615214,-7.153094 3.922664,-9.691289 l 4.15341,4.153409 z m -2.30745,6.691605 c 0.115372,2.076704 1.038352,4.038037 2.30745,5.537879 l -4.038038,4.15341 C 10.696416,31.865704 9.196574,28.519902 9.081201,24.71261 h 5.653252 z m -1.730588,11.191131 c 2.76894,2.538195 6.345487,4.153409 10.383524,4.268782 V 46.05652 C 17.734137,45.941147 12.657748,43.633698 8.850456,40.05715 l 4.153409,-4.153409 z m 11.537249,4.153409 c 3.922665,-0.115372 7.614584,-1.730587 10.383524,-4.268782 l 4.15341,4.15341 c -3.807293,3.576547 -8.883682,5.883997 -14.536934,5.999369 V 40.05715 z m 6.345487,-9.691288 c 1.38447,-1.499843 2.192077,-3.461175 2.30745,-5.653252 h 5.768624 c -0.115372,3.807292 -1.615215,7.153094 -4.038037,9.691289 l -4.038037,-4.038037 z m 2.30745,-6.691605 c -0.115373,-2.192077 -0.92298,-4.153409 -2.30745,-5.653252 l 4.15341,-4.153409 c 2.307449,2.538195 3.807292,5.999369 3.922664,9.806661 l -5.768624,0 z M 8.042849,9.0219523 12.196258,13.175361 C 9.658063,15.944301 8.042849,19.63622 7.812104,23.558885 l -5.7686244,0 C 2.2742246,17.905633 4.4663018,12.829244 8.042849,9.0219523 z M 2.0434796,24.71261 H 7.812104 c 0.115372,4.038037 1.845959,7.614584 4.384154,10.383524 L 8.042849,39.249543 C 4.4663018,35.442251 2.2742246,30.365862 2.0434796,24.71261 z M 39.770282,39.249543 35.616873,35.096134 C 38.27044,32.327194 39.885655,28.750647 40.1164,24.71261 h 5.768624 c -0.230745,5.653252 -2.422822,10.729641 -6.114742,14.536933 z"
     id="path5"
     inkscape:connector-curvature="0"
     style="fill:#3c385c;stroke:#1e96fa;stroke-width:2;stroke-miterlimit:4;stroke-opacity:1;stroke-dasharray:none" /></svg>