<?xml version="1.0" encoding="UTF-8" standalone="no"?>
<!-- Generator: Adobe Illustrator 15.1.0, SVG Export Plug-In . SVG Version: 6.00 Build 0)  -->

<svg
   xmlns:dc="http://purl.org/dc/elements/1.1/"
   xmlns:cc="http://creativecommons.org/ns#"
   xmlns:rdf="http://www.w3.org/1999/02/22-rdf-syntax-ns#"
   xmlns:svg="http://www.w3.org/2000/svg"
   xmlns="http://www.w3.org/2000/svg"
   xmlns:sodipodi="http://sodipodi.sourceforge.net/DTD/sodipodi-0.dtd"
   xmlns:inkscape="http://www.inkscape.org/namespaces/inkscape"
   version="1.1"
   id="Calque_1"
   x="0px"
   y="0px"
   width="48"
   height="48"
   viewBox="0 0 48 48"
   xml:space="preserve"
   inkscape:version="0.48.4 r9939"
   sodipodi:docname="projection2.svg"><metadata
     id="metadata11"><rdf:RDF><cc:Work
         rdf:about=""><dc:format>image/svg+xml</dc:format><dc:type
           rdf:resource="http://purl.org/dc/dcmitype/StillImage" /><dc:title></dc:title></cc:Work></rdf:RDF></metadata><defs
     id="defs9" /><sodipodi:namedview
     pagecolor="#ffffff"
     bordercolor="#666666"
     borderopacity="1"
     objecttolerance="10"
     gridtolerance="10"
     guidetolerance="10"
     inkscape:pageopacity="0"
     inkscape:pageshadow="2"
     inkscape:window-width="1754"
     inkscape:window-height="1054"
     id="namedview7"
     showgrid="false"
     inkscape:zoom="10.11377"
     inkscape:cx="24.872281"
     inkscape:cy="34.561335"
     inkscape:window-x="166"
     inkscape:window-y="0"
     inkscape:window-maximized="1"
     inkscape:current-layer="Calque_1" /><style
     type="text/css"
     id="style3">
	.st0{fill:#3C385C;}
</style><path
     class="st0"
     d="m 23.904036,1.1537752 c -2.750318,0 -13.751585,10.0386568 -13.751585,22.6901148 0,12.651458 11.001267,22.690116 13.751585,22.690116 2.750317,0 13.751585,-10.038658 13.751585,-22.690116 0,-12.651458 -11.001268,-22.6901148 -13.751585,-22.6901148 z m 9.213561,35.6853628 c -0.343789,-0.206273 -1.443916,-0.962611 -3.094106,-1.581433 0.825095,-3.025348 1.443916,-6.738276 1.443916,-11.070025 l 5.500635,0 c -0.06876,4.675538 -1.718948,9.076046 -3.850445,12.651458 z M 10.84003,24.18768 l 5.500634,0 c 0,4.400507 0.618822,8.044677 1.443916,11.138784 -1.581431,0.61882 -2.681558,1.306401 -3.094105,1.581432 -2.131497,-3.64417 -3.781687,-8.044678 -3.850445,-12.720216 z m 3.850445,-13.407795 c 0.27503,0.206273 1.375157,0.962611 3.094105,1.581432 -0.825094,3.094107 -1.443916,6.738277 -1.443916,11.070025 l -5.500634,0 c 0.06876,-4.675537 1.718948,-9.076045 3.850445,-12.651457 z M 23.560246,1.9101123 V 12.773864 c -1.925221,-0.06876 -3.575412,-0.343789 -4.950569,-0.825094 1.650188,-5.8444242 4.056716,-9.1448047 4.813053,-10.0386577 0.06876,0 0.06876,0 0.137516,0 z m 13.407796,21.5899887 -5.500635,0 c 0,-4.33175 -0.618821,-8.044677 -1.443916,-11.070026 1.718948,-0.618822 2.750317,-1.375159 3.025349,-1.581433 2.200254,3.506655 3.850443,7.907163 3.919202,12.651459 z m -6.188214,0 -6.600761,0 V 13.461444 c 2.062738,-0.06876 3.850444,-0.412547 5.225603,-0.825095 0.825095,2.95659 1.375158,6.60076 1.375158,10.863752 z M 24.247826,12.773864 V 1.9101123 c 0.06876,0 0.137515,0.068759 0.206273,0.068759 0.756337,0.893853 3.162865,4.1942334 4.813054,10.0386567 -1.375158,0.412548 -3.025348,0.756337 -5.019327,0.756337 z m -0.68758,0.68758 v 10.038657 l -6.532002,0 c 0,-4.262992 0.618821,-7.838404 1.375159,-10.863752 1.375157,0.412548 3.094105,0.756337 5.156843,0.825095 z m -6.532002,10.726236 6.532002,0 v 9.969899 c -1.99398,0.06876 -3.712928,0.412547 -5.156843,0.962611 -0.756338,-3.025349 -1.375159,-6.669519 -1.375159,-10.93251 z m 6.532002,10.657478 v 10.93251 c -0.06876,0 -0.06876,0 -0.137516,0 -0.618821,-0.687579 -3.162865,-3.98796 -4.813053,-10.038656 1.375157,-0.481307 3.025348,-0.825096 4.950569,-0.893854 z m 0.68758,0 c 1.925221,0.06876 3.575412,0.412547 5.019327,0.825095 -1.718947,6.050698 -4.262991,9.351078 -4.881812,10.038656 -0.06876,0 -0.06876,0 -0.137515,0.06876 V 34.845155 z m 0,-0.756337 V 24.18768 l 6.60076,0 c -0.06876,4.262991 -0.618821,7.907161 -1.375159,10.863751 -1.512674,-0.481305 -3.231622,-0.893852 -5.225601,-0.96261 z m 8.59474,-23.790241 c -0.481305,0.343788 -1.512674,0.893852 -2.956591,1.443916 -1.375159,-4.8818131 -3.369138,-7.9759198 -4.33175,-9.2823203 1.993981,1.1688848 4.881814,3.9879596 7.288341,7.8384043 z M 22.322604,2.4601757 c -0.962612,1.3064005 -2.956592,4.4692651 -4.331749,9.3510773 -1.443917,-0.481304 -2.475286,-1.100127 -2.956591,-1.443916 2.337769,-3.9192017 5.29436,-6.7382765 7.28834,-7.9071613 z m -7.28834,34.9290253 c 0.550064,-0.34379 1.581432,-0.96261 2.956591,-1.443917 1.443916,5.088088 3.506653,8.182194 4.400506,9.351079 -1.993979,-1.168885 -4.95057,-3.98796 -7.357097,-7.907162 z m 10.382446,7.907162 c 0.893853,-1.237643 2.887833,-4.33175 4.400506,-9.351079 1.443918,0.481307 2.475286,1.100127 3.02535,1.443917 -2.475286,3.850445 -5.431877,6.738277 -7.425856,7.907162 z"
     id="path5"
     inkscape:connector-curvature="0"
     style="fill:#3c385c;stroke:#3296fa;stroke-width:2;stroke-miterlimit:4;stroke-opacity:1;stroke-dasharray:none" /></svg>