<?xml version="1.0" encoding="UTF-8" standalone="no"?>
<!-- Generator: Adobe Illustrator 15.1.0, SVG Export Plug-In . SVG Version: 6.00 Build 0)  -->

<svg
   xmlns:dc="http://purl.org/dc/elements/1.1/"
   xmlns:cc="http://creativecommons.org/ns#"
   xmlns:rdf="http://www.w3.org/1999/02/22-rdf-syntax-ns#"
   xmlns:svg="http://www.w3.org/2000/svg"
   xmlns="http://www.w3.org/2000/svg"
   xmlns:sodipodi="http://sodipodi.sourceforge.net/DTD/sodipodi-0.dtd"
   xmlns:inkscape="http://www.inkscape.org/namespaces/inkscape"
   version="1.1"
   id="Calque_1"
   x="0px"
   y="0px"
   width="48"
   height="48"
   viewBox="0 0 48 47.999998"
   xml:space="preserve"
   inkscape:version="0.48.4 r9939"
   sodipodi:docname="projection5.svg"><metadata
     id="metadata11"><rdf:RDF><cc:Work
         rdf:about=""><dc:format>image/svg+xml</dc:format><dc:type
           rdf:resource="http://purl.org/dc/dcmitype/StillImage" /></cc:Work></rdf:RDF></metadata><defs
     id="defs9" /><sodipodi:namedview
     pagecolor="#ffffff"
     bordercolor="#666666"
     borderopacity="1"
     objecttolerance="10"
     gridtolerance="10"
     guidetolerance="10"
     inkscape:pageopacity="0"
     inkscape:pageshadow="2"
     inkscape:window-width="1754"
     inkscape:window-height="1054"
     id="namedview7"
     showgrid="false"
     inkscape:zoom="11.540342"
     inkscape:cx="26.817387"
     inkscape:cy="21.109376"
     inkscape:window-x="166"
     inkscape:window-y="0"
     inkscape:window-maximized="1"
     inkscape:current-layer="Calque_1" /><style
     type="text/css"
     id="style3">
	.st0{fill:#3C385C;}
</style><path
     class="st0"
     d="M 23.84806,2.5274808 7.2772056,43.518543 c 0,0 6.7591644,3.270563 16.5708544,3.270563 9.702672,0 16.570855,-3.270563 16.570855,-3.270563 L 23.84806,2.5274808 z M 11.528938,35.560171 14.472444,28.364932 c 0.872151,0.218037 2.834489,0.654113 5.668977,0.763131 l -0.981169,7.631315 c -3.924676,-0.327057 -6.650145,-0.981169 -7.631314,-1.199207 z m 7.522296,2.289395 -0.98117,7.413276 C 13.382257,44.717749 10.111694,43.518543 8.585431,42.86443 l 2.616451,-6.32309 c 0.981169,0.218038 3.815657,0.981169 7.849352,1.308226 z M 23.84806,20.624598 c 0.545094,0 1.090188,0 1.526263,0 l 0.981169,7.631315 c -0.763131,0 -1.635282,0.109019 -2.507432,0.109019 -0.87215,0 -1.744301,0 -2.507431,0 l 0.981169,-7.631315 c 0.436074,-0.218038 0.981169,-0.109019 1.526262,-0.109019 z M 22.430816,19.425392 23.84806,8.4144946 25.265305,19.425392 c -0.436076,0 -0.872151,0 -1.417245,0 -0.545093,0.109018 -0.981169,0.109018 -1.417244,0 z m 4.033695,1.090187 c 1.635282,-0.109018 2.72547,-0.218037 3.379582,-0.327057 l 2.943507,7.195241 c -0.872149,0.218037 -2.61645,0.545093 -5.450939,0.763131 l -0.87215,-7.631315 z M 26.355492,19.425392 24.829229,7.7603818 29.408018,19.098335 c -0.545094,0.109018 -1.635282,0.218037 -3.052526,0.327057 z m -5.014863,0 c -1.526264,-0.10902 -2.507433,-0.218039 -3.161546,-0.327057 L 22.757872,7.6513631 21.340629,19.425392 z m -0.10902,1.090187 -0.981169,7.631315 C 17.524971,27.928856 15.671652,27.6018 14.799501,27.383763 l 2.943507,-7.195241 c 0.763132,0.10902 1.85332,0.218039 3.488601,0.327057 z m 0,8.721503 c 0.763132,0 1.635282,0.109019 2.616451,0.109019 0.981169,0 1.853319,0 2.616451,-0.109019 l 0.981169,7.631315 c -1.090188,0.109019 -2.289394,0.109019 -3.59762,0.109019 -1.308225,0 -2.507431,0 -3.59762,-0.109019 l 0.981169,-7.631315 z m 6.32309,-0.109019 c 2.834488,-0.218038 4.796826,-0.545094 5.668977,-0.763131 l 2.834488,6.977202 c -0.763132,0.218037 -3.488601,1.090187 -7.522296,1.417244 l -0.981169,-7.631315 z m 8.93954,7.19524 2.616451,6.541127 c -1.526264,0.654113 -4.905845,1.853319 -9.484635,2.398412 l -0.981169,-7.413276 c 4.142714,-0.436076 7.086222,-1.199207 7.849353,-1.526263 z m -17.333987,9.048559 0.981169,-7.522296 c 1.199208,0.218037 2.398414,0.218037 3.706639,0.218037 1.308226,0 2.507432,-0.109018 3.706639,-0.109018 l 0.981169,7.522296 c -1.526264,0.109018 -3.052526,0.218037 -4.687808,0.218037 -1.635282,0 -3.161544,-0.109019 -4.687808,-0.327056 z"
     id="path5"
     inkscape:connector-curvature="0"
     style="fill:#3296fa;fill-opacity:1;stroke:#3296fa;stroke-width:1.84890234;stroke-miterlimit:4;stroke-opacity:1;stroke-dasharray:none" /></svg>