<?xml version="1.0" encoding="UTF-8" standalone="no"?>
<!-- Generator: Adobe Illustrator 15.1.0, SVG Export Plug-In . SVG Version: 6.00 Build 0)  -->

<svg
   xmlns:dc="http://purl.org/dc/elements/1.1/"
   xmlns:cc="http://creativecommons.org/ns#"
   xmlns:rdf="http://www.w3.org/1999/02/22-rdf-syntax-ns#"
   xmlns:svg="http://www.w3.org/2000/svg"
   xmlns="http://www.w3.org/2000/svg"
   xmlns:sodipodi="http://sodipodi.sourceforge.net/DTD/sodipodi-0.dtd"
   xmlns:inkscape="http://www.inkscape.org/namespaces/inkscape"
   version="1.1"
   id="Calque_1"
   x="0px"
   y="0px"
   width="48"
   height="48"
   viewBox="0 0 48 48"
   xml:space="preserve"
   inkscape:version="0.48.4 r9939"
   sodipodi:docname="proj_square.svg"
   inkscape:export-filename="/home/husky/dev/symadremGroup/geotoolkit-javafx/modules/display/geotk-widgets-javafx/src/main/resources/org/geotoolkit/gui/javafx/icon/projection4.png"
   inkscape:export-xdpi="30"
   inkscape:export-ydpi="30"><metadata
     id="metadata11"><rdf:RDF><cc:Work
         rdf:about=""><dc:format>image/svg+xml</dc:format><dc:type
           rdf:resource="http://purl.org/dc/dcmitype/StillImage" /><dc:title /></cc:Work></rdf:RDF></metadata><defs
     id="defs9" /><sodipodi:namedview
     pagecolor="#ffffff"
     bordercolor="#666666"
     borderopacity="1"
     objecttolerance="10"
     gridtolerance="10"
     guidetolerance="10"
     inkscape:pageopacity="0"
     inkscape:pageshadow="2"
     inkscape:window-width="1920"
     inkscape:window-height="1054"
     id="namedview7"
     showgrid="false"
     inkscape:zoom="5.9"
     inkscape:cx="-35.847458"
     inkscape:cy="20"
     inkscape:window-x="1920"
     inkscape:window-y="0"
     inkscape:window-maximized="1"
     inkscape:current-layer="Calque_1" /><style
     type="text/css"
     id="style3">
	.st0{fill:#3C385C;}
</style><path
     class="st0"
     d="M 1.4537149,6.2333759 V 41.959519 H 46.111395 V 6.2333759 H 1.4537149 z M 45.218242,14.80765 h -9.82469 V 7.2158448 h 9.82469 V 14.80765 z m -20.989111,0 V 7.2158448 H 34.500398 V 14.80765 H 24.229131 z m 10.271267,0.893153 v 7.949068 H 24.229131 V 15.700803 H 34.500398 z M 23.335978,14.80765 H 13.064712 V 7.2158448 H 23.335978 V 14.80765 z m 0,0.893153 v 7.949068 H 13.064712 V 15.700803 H 23.335978 z M 12.171559,23.649871 H 2.3468684 v -7.949068 h 9.8246906 v 7.949068 z m 0,0.893153 v 8.038382 H 2.3468684 v -8.038382 h 9.8246906 z m 0.893153,0 h 10.271266 v 8.038382 H 13.064712 v -8.038382 z m 11.164419,0 h 10.271267 v 8.038382 H 24.229131 v -8.038382 z m 11.164421,0 h 9.82469 v 8.038382 h -9.82469 v -8.038382 z m 0,-0.893153 v -7.949068 h 9.82469 v 7.949068 h -9.82469 z M 12.171559,7.2158448 V 14.80765 H 2.3468684 V 7.2158448 H 12.171559 z M 2.3468684,41.155681 v -7.591805 h 9.8246906 v 7.591805 H 2.3468684 z m 10.7178436,0 v -7.591805 h 10.271266 v 7.591805 H 13.064712 z M 24.229131,33.47456 h 10.271267 v 7.591805 H 24.229131 V 33.47456 z m 11.164421,7.681121 v -7.591805 h 9.82469 v 7.591805 h -9.82469 z"
     id="path5"
     style="fill:#1e96fa;stroke:#1e96fa;stroke-width:3;stroke-miterlimit:4;stroke-opacity:1;stroke-dasharray:none;fill-opacity:1"
     inkscape:connector-curvature="0" /></svg>