<?xml version="1.0" encoding="UTF-8" standalone="no"?>
<!-- Created with Inkscape (http://www.inkscape.org/) -->
<svg
   xmlns:svg="http://www.w3.org/2000/svg"
   xmlns="http://www.w3.org/2000/svg"
   version="1.0"
   width="524.05078"
   height="525.11597"
   id="svg2">
  <defs
     id="defs4" />
  <g
     transform="translate(-10.169212,-405.81982)"
     id="layer1">
    <g
       transform="matrix(0.8,0,0,0.8,54.285712,134.47243)"
       id="g3182" />
    <path
       d="M 196.875,602.8125 L 252.69844,674.61913 L 196.875,744.875 L 270.11564,692.42656 L 338.9375,744.875 L 291.46875,673.84375 L 338.9375,602.8125 L 270.18829,656.15038 L 196.875,602.8125 z"
       id="path3331"
       style="fill:#000100;fill-opacity:1;stroke:none;stroke-width:700;stroke-linecap:round;stroke-linejoin:round;stroke-miterlimit:4;stroke-dashoffset:0;stroke-opacity:1" />
    <path
       d="M 363.57144,669.50507 C 363.57144,721.97212 321.03849,764.50507 268.57144,764.50507 C 216.10439,764.50507 173.57144,721.97212 173.57144,669.50507 C 173.57144,617.03802 216.10439,574.50507 268.57144,574.50507 C 321.03849,574.50507 363.57144,617.03802 363.57144,669.50507 z"
       transform="matrix(0.7360905,0.3133223,-0.3133223,0.7360905,283.50653,96.539361)"
       id="path3217"
       style="fill:none;fill-opacity:1;stroke:#000000;stroke-width:18.74999809;stroke-linecap:butt;stroke-linejoin:miter;stroke-miterlimit:4;stroke-dasharray:4.68749968, 4.68749968;stroke-dashoffset:0;stroke-opacity:1" />
    <path
       d="M 363.57144,669.50507 C 363.57144,721.97212 321.03849,764.50507 268.57144,764.50507 C 216.10439,764.50507 173.57144,721.97212 173.57144,669.50507 C 173.57144,617.03802 216.10439,574.50507 268.57144,574.50507 C 321.03849,574.50507 363.57144,617.03802 363.57144,669.50507 z"
       transform="matrix(0.7107944,-8.9478723e-2,8.9478723e-2,0.7107944,20.623071,221.65589)"
       id="path3223"
       style="fill:none;fill-opacity:1;stroke:#000000;stroke-width:12.56273842;stroke-linecap:butt;stroke-linejoin:miter;stroke-miterlimit:4;stroke-dasharray:150.7528583, 150.7528583;stroke-dashoffset:0;stroke-opacity:1" />
    <path
       d="M 253.84375,657.21875 L 142.6875,672.375 L 253.84375,697.5 L 271.4375,687.15625 L 289.03125,697.5 L 400.15625,672.375 L 289.03125,657.21875 L 271.4375,657.5625 L 253.84375,657.21875 z"
       id="path3178"
       style="fill:#000100;fill-opacity:1;stroke:none;stroke-width:700;stroke-linecap:round;stroke-linejoin:round;stroke-miterlimit:4;stroke-dashoffset:0;stroke-opacity:1" />
    <path
       d="M 154.20053,672.55742 L 250.78445,695.20781 L 271.44419,684.90625 L 292.07268,695.20781 L 381.58553,673.56758 L 271.44419,667.10714 L 154.20053,672.55742 z"
       id="path3188"
       style="fill:#ffffff;fill-opacity:1;stroke:none;stroke-width:700;stroke-linecap:round;stroke-linejoin:round;stroke-miterlimit:4;stroke-dashoffset:0;stroke-opacity:1" />
    <path
       d="M 246.29148,686.01932 L 271.42856,835.15641 L 296.56564,686.01932 L 271.42856,643.28224 L 246.29148,686.01932 z"
       id="path2406"
       style="fill:#000100;fill-opacity:1;stroke:none;stroke-width:700;stroke-linecap:round;stroke-linejoin:round;stroke-miterlimit:4;stroke-dashoffset:0;stroke-opacity:1" />
    <path
       d="M 250.23376,690.71646 L 270.34342,819.62613 L 261.5388,691.85932 L 270.34342,656.5268 L 250.23376,690.71646 z"
       id="path3211"
       style="fill:#ffffff;fill-opacity:1;stroke:none;stroke-width:700;stroke-linecap:round;stroke-linejoin:round;stroke-miterlimit:4;stroke-dashoffset:0;stroke-opacity:1" />
    <path
       d="M 240.00721,674.93363 L 271.42856,449.51226 L 302.84991,674.93363 L 271.42856,728.35498 L 240.00721,674.93363 z"
       id="rect2383"
       style="fill:#fe0000;fill-opacity:1;stroke:#000000;stroke-width:2;stroke-linecap:round;stroke-linejoin:round;stroke-miterlimit:4;stroke-dasharray:none;stroke-dashoffset:0;stroke-opacity:1" />
    <text
       x="248.62434"
       y="457.26138"
       id="text3313"
       xml:space="preserve"
       style="font-size:64px;font-style:normal;font-variant:normal;font-weight:normal;font-stretch:normal;fill:#ff0000;fill-opacity:1;stroke:none;stroke-width:1px;stroke-linecap:butt;stroke-linejoin:miter;stroke-opacity:1;font-family:Nimbus Roman No9 L;-inkscape-font-specification:Nimbus Roman No9 L"><tspan
         x="248.62434"
         y="457.26138"
         id="tspan3315">N</tspan></text>
    <text
       x="-282.71637"
       y="-836.79675"
       transform="scale(-1,-1)"
       id="text3317"
       xml:space="preserve"
       style="font-size:40px;font-style:normal;font-variant:normal;font-weight:normal;font-stretch:normal;fill:#000000;fill-opacity:1;stroke:none;stroke-width:1px;stroke-linecap:butt;stroke-linejoin:miter;stroke-opacity:1;font-family:Nimbus Roman No9 L;-inkscape-font-specification:Nimbus Roman No9 L"><tspan
         x="-282.71637"
         y="-836.79675"
         id="tspan3319">S</tspan></text>
    <text
       x="660.0451"
       y="-401.82254"
       transform="matrix(0,1,-1,0,0,0)"
       id="text3321"
       xml:space="preserve"
       style="font-size:40px;font-style:normal;font-variant:normal;font-weight:normal;font-stretch:normal;fill:#000000;fill-opacity:1;stroke:none;stroke-width:1px;stroke-linecap:butt;stroke-linejoin:miter;stroke-opacity:1;font-family:Nimbus Roman No9 L;-inkscape-font-specification:Nimbus Roman No9 L"><tspan
         x="660.0451"
         y="-401.82254"
         id="tspan3323">E</tspan></text>
    <text
       x="-692.1051"
       y="144.60106"
       transform="matrix(0,-1,1,0,0,0)"
       id="text3325"
       xml:space="preserve"
       style="font-size:40px;font-style:normal;font-variant:normal;font-weight:normal;font-stretch:normal;fill:#000000;fill-opacity:1;stroke:none;stroke-width:1px;stroke-linecap:butt;stroke-linejoin:miter;stroke-opacity:1;font-family:Nimbus Roman No9 L;-inkscape-font-specification:Nimbus Roman No9 L"><tspan
         x="-692.1051"
         y="144.60106"
         id="tspan3327">W</tspan></text>
  </g>
  <rect
     width="524.05078"
     height="525.11597"
     x="0"
     y="0"
     id="rect2473"
     style="opacity:1;fill:none;fill-opacity:1;stroke:none;stroke-width:15;stroke-linecap:butt;stroke-linejoin:miter;stroke-miterlimit:4;stroke-dasharray:3.75, 3.75;stroke-dashoffset:0;stroke-opacity:1" />
</svg>
